<svg width="40" height="40" viewBox="0 0 40 40" fill="none" xmlns="http://www.w3.org/2000/svg">
<path d="M37.4427 13.8371L26.1629 2.55298C22.7589 -0.850994 17.2411 -0.850994 13.8371 2.55298L2.55298 13.8371C-0.850994 17.2411 -0.850994 22.7589 2.55298 26.1629L13.8371 37.447C17.2411 40.851 22.7589 40.851 26.1629 37.447L37.447 26.1629C40.851 22.7589 40.851 17.2411 37.447 13.8371H37.4427ZM31.8028 19.0934L16.9839 33.9341C16.3389 34.5791 15.3539 34.1956 15.5718 33.3806L17.1801 27.3353L18.5181 22.3013L19.2983 19.3637C19.3724 19.076 19.0281 18.9409 18.8014 19.1719L16.657 21.3206C16.134 21.8436 15.4279 22.0964 14.7524 22.0964H8.68101C8.00545 22.0572 7.8006 21.2901 8.32798 20.7627L23.0117 6.06592C23.6568 5.42087 24.6418 5.80441 24.4239 6.61945L21.787 16.5394C21.617 17.1801 22.0049 17.7292 22.6587 17.7641H31.4541C32.1253 17.7641 32.3345 18.5704 31.8071 19.0978L31.8028 19.0934Z" fill="#D6FF63"/>
</svg>
