<svg width="146" height="32" viewBox="0 0 146 32" fill="none" xmlns="http://www.w3.org/2000/svg">
<g clip-path="url(#clip0_548_46)">
<path d="M29.4026 11.0713L20.5453 2.04347C17.8723 -0.679856 13.5394 -0.679856 10.8665 2.04347L2.00569 11.0713C-0.667262 13.7946 -0.667262 18.2091 2.00569 20.9324L10.8665 29.9602C13.5394 32.6835 17.8723 32.6835 20.5453 29.9602L29.4061 20.9324C32.079 18.2091 32.079 13.7946 29.4061 11.0713H29.4026ZM24.974 15.2766L13.3375 27.1497C12.831 27.6658 12.0575 27.3589 12.2286 26.7069L13.4915 21.8704L14.5422 17.843L15.1549 15.4927C15.213 15.2626 14.9427 15.1545 14.7647 15.3393L13.0808 17.0584C12.6701 17.4768 12.1157 17.6791 11.5852 17.6791H6.8177C6.28722 17.6477 6.12636 17.034 6.54048 16.6121L18.0708 4.85398C18.5773 4.33791 19.3508 4.64476 19.1797 5.29682L17.1091 13.2332C16.9756 13.7458 17.2802 14.1851 17.7936 14.213H24.7002C25.2272 14.213 25.3915 14.8581 24.9774 15.28L24.974 15.2766Z" fill="#D6FF64"/>
<path d="M67.091 10.52C66.0301 10.52 65.0444 10.8269 64.2196 11.4127V10.7118H61.7383V24.59H64.2196V20.3951C65.0478 20.981 66.0301 21.2878 67.091 21.2878C70.0344 21.2878 72.3411 18.9236 72.3411 15.9039C72.3411 12.8842 70.0344 10.52 67.091 10.52ZM67.0397 13.0132C68.6209 13.0132 69.8598 14.2825 69.8598 15.9039C69.8598 17.5254 68.6209 18.7946 67.0397 18.7946C65.4585 18.7946 64.2196 17.5254 64.2196 15.9039C64.2196 14.2825 65.4585 13.0132 67.0397 13.0132Z" fill="white"/>
<path d="M55.3039 10.52C54.243 10.52 53.2573 10.8269 52.4325 11.4127V10.7118H49.9512V24.59H52.4325V20.3951C53.2607 20.981 54.243 21.2878 55.3039 21.2878C58.2473 21.2878 60.554 18.9236 60.554 15.9039C60.554 12.8842 58.2473 10.52 55.3039 10.52ZM55.2526 13.0132C56.8338 13.0132 58.0727 14.2825 58.0727 15.9039C58.0727 17.5254 56.8338 18.7946 55.2526 18.7946C53.6714 18.7946 52.4325 17.5254 52.4325 15.9039C52.4325 14.2825 53.6714 13.0132 55.2526 13.0132Z" fill="white"/>
<path d="M79.7953 10.7119L77.3106 17.1837L74.4289 10.7119H71.7217L76.0374 20.4441L75.9861 20.5766C75.7294 21.1903 75.1578 22.191 74.2543 22.1178L74.025 22.0969L73.9018 24.5727L74.1174 24.5901C74.2132 24.5971 74.3056 24.6006 74.4015 24.6006C76.0785 24.6006 77.5502 23.3975 78.3305 21.3786L82.4717 10.7119H79.7953Z" fill="white"/>
<path d="M44.1093 7.21777H42.0387L36.7441 21.0959H39.4513L40.615 17.989H45.5125L46.6796 21.0959H49.3834L44.1093 7.21777ZM44.5645 15.4575H41.5801L43.0723 11.4928L44.5645 15.4575Z" fill="white"/>
<path d="M87.5371 7.21777H85.4665L80.1719 21.0959H82.8791L84.0427 17.989H88.9403L90.1073 21.0959H92.8111L87.5371 7.21777ZM87.9922 15.4575H85.0078L86.5 11.4928L87.9922 15.4575Z" fill="white"/>
<path d="M109.033 10.5197C106.039 10.5197 103.783 12.835 103.783 15.9036C103.783 18.9721 106.021 21.2875 109.102 21.2875C110.998 21.2875 112.654 20.4018 113.534 18.9128L111.371 17.6331C110.981 18.3584 110.139 18.7908 109.119 18.7908C107.904 18.7908 106.952 18.1945 106.525 17.1798H113.996C113.996 17.1798 114.078 16.7056 114.078 15.9315C114.078 13.3023 112.309 10.5127 109.033 10.5127V10.5197ZM109.033 13.0129C110.139 13.0129 110.994 13.6301 111.371 14.6761H106.504C106.915 13.644 107.859 13.0129 109.033 13.0129Z" fill="white"/>
<path d="M119.999 10.52C119.144 10.52 118.387 10.7188 117.744 11.1058V10.7118H115.263V21.0995H117.744V15.6633C117.744 13.9547 118.521 13.0167 119.931 13.0167C121.047 13.0167 121.639 13.6478 121.639 14.8439V21.103H124.137V14.8439C124.137 12.26 122.474 10.5235 119.999 10.5235V10.52Z" fill="white"/>
<path d="M133.004 17.4173C132.553 18.2785 131.67 18.7946 130.636 18.7946C129.027 18.7946 127.816 17.5498 127.816 15.9039C127.816 14.2581 129.027 13.0132 130.636 13.0132C131.68 13.0132 132.559 13.5258 132.932 14.3487L133.028 14.5614L135.198 13.4316L135.109 13.2364C134.349 11.5626 132.635 10.52 130.636 10.52C127.604 10.52 125.317 12.8354 125.317 15.9039C125.317 18.9725 127.604 21.2878 130.636 21.2878C132.59 21.2878 134.325 20.2661 135.16 18.6238L135.26 18.4285L133.107 17.215L133.001 17.4173H133.004Z" fill="white"/>
<path d="M142.711 10.7119L140.227 17.1837L137.345 10.7119H134.638L138.953 20.4441L138.902 20.5766C138.645 21.1903 138.077 22.191 137.17 22.1178L136.941 22.0969L136.818 24.5727L137.033 24.5901C137.129 24.5971 137.222 24.6006 137.317 24.6006C138.995 24.6006 140.466 23.3975 141.247 21.3786L145.388 10.7119H142.711Z" fill="white"/>
<path d="M100.119 10.7118V11.4127C99.2904 10.8269 98.3081 10.52 97.2472 10.52C94.3038 10.52 91.9971 12.8842 91.9971 15.9039C91.9971 18.9236 94.3038 21.2878 97.2472 21.2878C98.2876 21.2878 99.2561 20.9914 100.074 20.4265C100.122 21.7272 98.9755 22.6791 97.5244 22.6791C96.395 22.6791 95.5975 22.3688 95.1492 21.7551L92.9964 23.0348C93.8657 24.3947 95.4812 25.1723 97.5244 25.1723C100.516 25.1723 102.603 22.7523 102.603 19.8477V10.7118H100.122H100.119ZM97.2985 18.7981C95.7173 18.7981 94.4784 17.5288 94.4784 15.9074C94.4784 14.286 95.7173 13.0167 97.2985 13.0167C98.8797 13.0167 100.119 14.286 100.119 15.9074C100.119 17.5288 98.8797 18.7981 97.2985 18.7981Z" fill="white"/>
</g>
<defs>
<clipPath id="clip0_548_46">
<rect width="145.524" height="32" fill="white"/>
</clipPath>
</defs>
</svg>
